<svg xmlns="http://www.w3.org/2000/svg" viewBox="0 0 290 299" width="290" height="299" fill="none">
  <path d="M 105 95 L 104 96 L 103 96 L 102 97 L 101 97 L 100 98 L 99 99 L 98 100 L 97 101 L 97 102 L 96 103 L 96 104 L 96 105 L 96 106 L 96 107 L 96 108 L 96 109 L 96 110 L 96 111 L 96 112 L 96 113 L 96 114 L 96 115 L 96 116 L 96 117 L 96 118 L 96 119 L 96 120 L 96 121 L 96 122 L 96 123 L 96 124 L 96 125 L 96 126 L 96 127 L 96 128 L 96 129 L 96 130 L 96 131 L 96 132 L 96 133 L 96 134 L 96 135 L 96 136 L 96 137 L 96 138 L 96 139 L 96 140 L 96 141 L 96 142 L 96 143 L 96 144 L 96 145 L 96 146 L 96 147 L 96 148 L 96 149 L 96 150 L 96 151 L 96 152 L 96 153 L 96 154 L 96 155 L 96 156 L 96 157 L 96 158 L 96 159 L 96 160 L 96 161 L 96 162 L 96 163 L 96 164 L 96 165 L 96 166 L 96 167 L 96 168 L 96 169 L 96 170 L 96 171 L 96 172 L 96 173 L 96 174 L 96 175 L 96 176 L 96 177 L 96 178 L 96 179 L 96 180 L 96 181 L 96 182 L 96 183 L 96 184 L 96 185 L 96 186 L 96 187 L 96 188 L 96 189 L 96 190 L 96 191 L 96 192 L 96 193 L 96 194 L 96 195 L 97 196 L 97 197 L 98 198 L 99 199 L 100 200 L 101 201 L 102 201 L 103 202 L 104 202 L 105 203 L 106 203 L 107 203 L 108 203 L 109 203 L 110 203 L 111 203 L 112 202 L 113 202 L 114 202 L 115 201 L 116 201 L 117 200 L 118 200 L 119 199 L 120 198 L 121 198 L 122 197 L 123 197 L 124 196 L 125 196 L 126 195 L 127 194 L 128 194 L 129 193 L 130 193 L 131 192 L 132 192 L 133 191 L 134 191 L 135 190 L 136 189 L 137 189 L 138 188 L 139 188 L 140 187 L 141 187 L 142 186 L 143 185 L 144 185 L 145 184 L 146 184 L 147 183 L 148 183 L 149 182 L 150 182 L 151 181 L 152 180 L 153 180 L 154 179 L 155 179 L 156 178 L 157 178 L 158 177 L 159 176 L 160 176 L 161 175 L 162 175 L 163 174 L 164 174 L 165 173 L 166 173 L 167 172 L 168 171 L 169 171 L 170 170 L 171 170 L 172 169 L 173 169 L 174 168 L 175 167 L 176 167 L 177 166 L 178 166 L 179 165 L 180 165 L 181 164 L 182 164 L 183 163 L 184 162 L 185 162 L 186 161 L 187 161 L 188 160 L 189 159 L 190 159 L 191 158 L 192 157 L 192 156 L 193 155 L 193 154 L 194 153 L 194 152 L 194 151 L 194 150 L 194 149 L 194 148 L 194 147 L 194 146 L 194 145 L 193 144 L 193 143 L 192 142 L 192 141 L 191 140 L 190 139 L 189 138 L 188 138 L 187 137 L 186 137 L 185 136 L 184 136 L 183 135 L 182 134 L 181 134 L 180 133 L 179 133 L 178 132 L 177 132 L 176 131 L 175 131 L 174 130 L 173 129 L 172 129 L 171 128 L 170 128 L 169 127 L 168 127 L 167 126 L 166 125 L 165 125 L 164 124 L 163 124 L 162 123 L 161 123 L 160 122 L 159 122 L 158 121 L 157 120 L 156 120 L 155 119 L 154 119 L 153 118 L 152 118 L 151 117 L 150 116 L 149 116 L 148 115 L 147 115 L 146 114 L 145 114 L 144 113 L 143 113 L 142 112 L 141 111 L 140 111 L 139 110 L 138 110 L 137 109 L 136 109 L 135 108 L 134 107 L 133 107 L 132 106 L 131 106 L 130 105 L 129 105 L 128 104 L 127 104 L 126 103 L 125 102 L 124 102 L 123 101 L 122 101 L 121 100 L 120 100 L 119 99 L 118 98 L 117 98 L 116 97 L 115 97 L 114 96 L 113 96 L 112 95 L 111 95 L 110 95 L 109 95 L 108 95 L 107 95 L 106 95 Z" fill="#000"/>
</svg>
